<mxfile host="app.diagrams.net" agent="Mozilla/5.0 (Windows NT 10.0; Win64; x64) AppleWebKit/537.36 (KHTML, like Gecko) Chrome/129.0.0.0 Safari/537.36" version="24.8.0">
  <diagram name="PÃ¡gina-1" id="839pYsUKg8ElvVpRUX4v">
    <mxGraphModel dx="1434" dy="772" grid="1" gridSize="10" guides="1" tooltips="1" connect="1" arrows="1" fold="1" page="1" pageScale="1" pageWidth="827" pageHeight="1169" math="0" shadow="0">
      <root>
        <mxCell id="0" />
        <mxCell id="1" parent="0" />
        <mxCell id="Bwu1Xx9QFbBlA7bNmXKV-10" style="edgeStyle=orthogonalEdgeStyle;rounded=0;orthogonalLoop=1;jettySize=auto;html=1;exitX=0.5;exitY=1;exitDx=0;exitDy=0;entryX=0.5;entryY=0;entryDx=0;entryDy=0;" parent="1" source="Bwu1Xx9QFbBlA7bNmXKV-1" target="Bwu1Xx9QFbBlA7bNmXKV-4" edge="1">
          <mxGeometry relative="1" as="geometry" />
        </mxCell>
        <mxCell id="Bwu1Xx9QFbBlA7bNmXKV-1" value="INICIO" style="ellipse;whiteSpace=wrap;html=1;" parent="1" vertex="1">
          <mxGeometry x="330" y="50" width="100" height="30" as="geometry" />
        </mxCell>
        <mxCell id="Bwu1Xx9QFbBlA7bNmXKV-2" value="FIM" style="ellipse;whiteSpace=wrap;html=1;" parent="1" vertex="1">
          <mxGeometry x="337.5" y="585" width="90" height="30" as="geometry" />
        </mxCell>
        <mxCell id="Bwu1Xx9QFbBlA7bNmXKV-3" style="edgeStyle=orthogonalEdgeStyle;rounded=0;orthogonalLoop=1;jettySize=auto;html=1;exitX=0.5;exitY=1;exitDx=0;exitDy=0;" parent="1" source="Bwu1Xx9QFbBlA7bNmXKV-2" target="Bwu1Xx9QFbBlA7bNmXKV-2" edge="1">
          <mxGeometry relative="1" as="geometry" />
        </mxCell>
        <mxCell id="Bwu1Xx9QFbBlA7bNmXKV-11" style="edgeStyle=orthogonalEdgeStyle;rounded=0;orthogonalLoop=1;jettySize=auto;html=1;exitX=0.5;exitY=1;exitDx=0;exitDy=0;" parent="1" source="Bwu1Xx9QFbBlA7bNmXKV-4" edge="1">
          <mxGeometry relative="1" as="geometry">
            <mxPoint x="380" y="200" as="targetPoint" />
            <Array as="points">
              <mxPoint x="380" y="170" />
              <mxPoint x="380" y="170" />
            </Array>
          </mxGeometry>
        </mxCell>
        <mxCell id="Bwu1Xx9QFbBlA7bNmXKV-4" value="&lt;p style=&quot;line-height: 220%;&quot;&gt;&lt;font style=&quot;font-size: 8px;&quot;&gt;&amp;nbsp; &amp;nbsp; &amp;nbsp;LEITURA&amp;nbsp;&lt;/font&gt;&lt;span style=&quot;background-color: initial; font-size: 8px;&quot;&gt;LETRA&lt;/span&gt;&lt;/p&gt;" style="html=1;strokeWidth=2;shape=manualInput;whiteSpace=wrap;rounded=1;size=26;arcSize=11;" parent="1" vertex="1">
          <mxGeometry x="340" y="110" width="80" height="50" as="geometry" />
        </mxCell>
        <mxCell id="Bwu1Xx9QFbBlA7bNmXKV-5" value="" style="rounded=0;whiteSpace=wrap;html=1;" parent="1" vertex="1">
          <mxGeometry x="30" y="280" width="120" height="60" as="geometry" />
        </mxCell>
        <mxCell id="Bwu1Xx9QFbBlA7bNmXKV-39" style="edgeStyle=orthogonalEdgeStyle;rounded=0;orthogonalLoop=1;jettySize=auto;html=1;" parent="1" edge="1">
          <mxGeometry relative="1" as="geometry">
            <mxPoint x="600" y="510" as="targetPoint" />
            <mxPoint x="560" y="255" as="sourcePoint" />
            <Array as="points">
              <mxPoint x="601" y="255" />
              <mxPoint x="601" y="510" />
            </Array>
          </mxGeometry>
        </mxCell>
        <mxCell id="Bwu1Xx9QFbBlA7bNmXKV-6" value="&lt;font style=&quot;font-size: 11px;&quot;&gt;IMPRIMA&amp;nbsp;&lt;/font&gt;&lt;div style=&quot;font-size: 11px;&quot;&gt;&lt;font style=&quot;font-size: 11px;&quot;&gt;SOLTEIRO&lt;/font&gt;&lt;/div&gt;" style="shape=display;whiteSpace=wrap;html=1;" parent="1" vertex="1">
          <mxGeometry x="490" y="215" width="80" height="40" as="geometry" />
        </mxCell>
        <mxCell id="Bwu1Xx9QFbBlA7bNmXKV-12" style="edgeStyle=orthogonalEdgeStyle;rounded=0;orthogonalLoop=1;jettySize=auto;html=1;" parent="1" source="Bwu1Xx9QFbBlA7bNmXKV-7" edge="1">
          <mxGeometry relative="1" as="geometry">
            <mxPoint x="480" y="235" as="targetPoint" />
            <Array as="points">
              <mxPoint x="430" y="235" />
              <mxPoint x="430" y="235" />
            </Array>
          </mxGeometry>
        </mxCell>
        <mxCell id="Yh_Mk-hNuPgb3gLtNrtE-3" style="edgeStyle=orthogonalEdgeStyle;rounded=0;orthogonalLoop=1;jettySize=auto;html=1;" edge="1" parent="1" source="Bwu1Xx9QFbBlA7bNmXKV-8">
          <mxGeometry relative="1" as="geometry">
            <mxPoint x="430" y="600" as="targetPoint" />
            <Array as="points">
              <mxPoint x="605" y="600" />
            </Array>
          </mxGeometry>
        </mxCell>
        <mxCell id="Bwu1Xx9QFbBlA7bNmXKV-8" value="" style="ellipse;whiteSpace=wrap;html=1;aspect=fixed;" parent="1" vertex="1">
          <mxGeometry x="590" y="515" width="30" height="30" as="geometry" />
        </mxCell>
        <mxCell id="Bwu1Xx9QFbBlA7bNmXKV-14" style="edgeStyle=orthogonalEdgeStyle;rounded=0;orthogonalLoop=1;jettySize=auto;html=1;" parent="1" source="Bwu1Xx9QFbBlA7bNmXKV-7" edge="1">
          <mxGeometry relative="1" as="geometry">
            <mxPoint x="380" y="310" as="targetPoint" />
            <Array as="points">
              <mxPoint x="380" y="300" />
            </Array>
          </mxGeometry>
        </mxCell>
        <mxCell id="Bwu1Xx9QFbBlA7bNmXKV-7" value="&lt;font style=&quot;font-size: 9px;&quot;&gt;SE LETRA == S&lt;/font&gt;" style="strokeWidth=2;html=1;shape=mxgraph.flowchart.decision;whiteSpace=wrap;" parent="1" vertex="1">
          <mxGeometry x="340" y="205" width="80" height="60" as="geometry" />
        </mxCell>
        <mxCell id="Bwu1Xx9QFbBlA7bNmXKV-18" style="edgeStyle=orthogonalEdgeStyle;rounded=0;orthogonalLoop=1;jettySize=auto;html=1;" parent="1" source="Bwu1Xx9QFbBlA7bNmXKV-13" edge="1">
          <mxGeometry relative="1" as="geometry">
            <mxPoint x="470" y="350" as="targetPoint" />
            <Array as="points">
              <mxPoint x="470" y="350" />
            </Array>
          </mxGeometry>
        </mxCell>
        <mxCell id="Bwu1Xx9QFbBlA7bNmXKV-24" style="edgeStyle=orthogonalEdgeStyle;rounded=0;orthogonalLoop=1;jettySize=auto;html=1;" parent="1" source="Bwu1Xx9QFbBlA7bNmXKV-13" edge="1">
          <mxGeometry relative="1" as="geometry">
            <mxPoint x="380" y="399.9999999999999" as="targetPoint" />
          </mxGeometry>
        </mxCell>
        <mxCell id="Bwu1Xx9QFbBlA7bNmXKV-13" value="&lt;font style=&quot;font-size: 9px;&quot;&gt;SE LETRA == C&lt;/font&gt;" style="strokeWidth=2;html=1;shape=mxgraph.flowchart.decision;whiteSpace=wrap;" parent="1" vertex="1">
          <mxGeometry x="337.5" y="320" width="85" height="60" as="geometry" />
        </mxCell>
        <mxCell id="Yh_Mk-hNuPgb3gLtNrtE-1" style="edgeStyle=orthogonalEdgeStyle;rounded=0;orthogonalLoop=1;jettySize=auto;html=1;exitX=1;exitY=0.5;exitDx=0;exitDy=0;exitPerimeter=0;" edge="1" parent="1" source="Bwu1Xx9QFbBlA7bNmXKV-15">
          <mxGeometry relative="1" as="geometry">
            <mxPoint x="600" y="510" as="targetPoint" />
            <Array as="points">
              <mxPoint x="601" y="350" />
              <mxPoint x="601" y="510" />
            </Array>
          </mxGeometry>
        </mxCell>
        <mxCell id="Bwu1Xx9QFbBlA7bNmXKV-15" value="&lt;font style=&quot;font-size: 11px;&quot;&gt;IMPRIMA&amp;nbsp;&lt;/font&gt;&lt;div style=&quot;font-size: 11px;&quot;&gt;CASADO&lt;/div&gt;" style="shape=display;whiteSpace=wrap;html=1;" parent="1" vertex="1">
          <mxGeometry x="480" y="330" width="80" height="40" as="geometry" />
        </mxCell>
        <mxCell id="Bwu1Xx9QFbBlA7bNmXKV-19" value="V" style="text;html=1;align=center;verticalAlign=middle;whiteSpace=wrap;rounded=0;" parent="1" vertex="1">
          <mxGeometry x="414" y="205" width="60" height="30" as="geometry" />
        </mxCell>
        <mxCell id="Bwu1Xx9QFbBlA7bNmXKV-20" value="F" style="text;html=1;align=center;verticalAlign=middle;whiteSpace=wrap;rounded=0;" parent="1" vertex="1">
          <mxGeometry x="370" y="270" width="60" height="30" as="geometry" />
        </mxCell>
        <mxCell id="Bwu1Xx9QFbBlA7bNmXKV-25" style="edgeStyle=orthogonalEdgeStyle;rounded=0;orthogonalLoop=1;jettySize=auto;html=1;" parent="1" source="Bwu1Xx9QFbBlA7bNmXKV-21" edge="1">
          <mxGeometry relative="1" as="geometry">
            <mxPoint x="469.9999999999998" y="439.9999999999999" as="targetPoint" />
          </mxGeometry>
        </mxCell>
        <mxCell id="Bwu1Xx9QFbBlA7bNmXKV-28" style="edgeStyle=orthogonalEdgeStyle;rounded=0;orthogonalLoop=1;jettySize=auto;html=1;" parent="1" source="Bwu1Xx9QFbBlA7bNmXKV-21" edge="1">
          <mxGeometry relative="1" as="geometry">
            <mxPoint x="380" y="489.9999999999999" as="targetPoint" />
          </mxGeometry>
        </mxCell>
        <mxCell id="Bwu1Xx9QFbBlA7bNmXKV-21" value="&lt;font style=&quot;font-size: 10px;&quot;&gt;SE LETRA == D&lt;/font&gt;" style="strokeWidth=2;html=1;shape=mxgraph.flowchart.decision;whiteSpace=wrap;" parent="1" vertex="1">
          <mxGeometry x="335" y="410" width="90" height="60" as="geometry" />
        </mxCell>
        <mxCell id="Yh_Mk-hNuPgb3gLtNrtE-2" style="edgeStyle=orthogonalEdgeStyle;rounded=0;orthogonalLoop=1;jettySize=auto;html=1;" edge="1" parent="1" source="Bwu1Xx9QFbBlA7bNmXKV-26">
          <mxGeometry relative="1" as="geometry">
            <mxPoint x="630" y="530" as="targetPoint" />
            <Array as="points">
              <mxPoint x="671" y="440" />
            </Array>
          </mxGeometry>
        </mxCell>
        <mxCell id="Bwu1Xx9QFbBlA7bNmXKV-26" value="&lt;font style=&quot;font-size: 11px;&quot;&gt;IMPRIMA&amp;nbsp;&lt;/font&gt;&lt;div style=&quot;font-size: 9px;&quot;&gt;DIVORCIADO&lt;/div&gt;" style="shape=display;whiteSpace=wrap;html=1;" parent="1" vertex="1">
          <mxGeometry x="480" y="420" width="80" height="40" as="geometry" />
        </mxCell>
        <mxCell id="Bwu1Xx9QFbBlA7bNmXKV-30" style="edgeStyle=orthogonalEdgeStyle;rounded=0;orthogonalLoop=1;jettySize=auto;html=1;" parent="1" source="Bwu1Xx9QFbBlA7bNmXKV-27" edge="1">
          <mxGeometry relative="1" as="geometry">
            <mxPoint x="469.9999999999998" y="530" as="targetPoint" />
          </mxGeometry>
        </mxCell>
        <mxCell id="Bwu1Xx9QFbBlA7bNmXKV-31" style="edgeStyle=orthogonalEdgeStyle;rounded=0;orthogonalLoop=1;jettySize=auto;html=1;" parent="1" source="Bwu1Xx9QFbBlA7bNmXKV-27" edge="1">
          <mxGeometry relative="1" as="geometry">
            <mxPoint x="380" y="580" as="targetPoint" />
          </mxGeometry>
        </mxCell>
        <mxCell id="Bwu1Xx9QFbBlA7bNmXKV-27" value="&lt;font style=&quot;font-size: 10px;&quot;&gt;SE LETRA == V&amp;nbsp;&lt;/font&gt;" style="strokeWidth=2;html=1;shape=mxgraph.flowchart.decision;whiteSpace=wrap;" parent="1" vertex="1">
          <mxGeometry x="335" y="500" width="90" height="60" as="geometry" />
        </mxCell>
        <mxCell id="Bwu1Xx9QFbBlA7bNmXKV-38" style="edgeStyle=orthogonalEdgeStyle;rounded=0;orthogonalLoop=1;jettySize=auto;html=1;" parent="1" source="Bwu1Xx9QFbBlA7bNmXKV-29" edge="1">
          <mxGeometry relative="1" as="geometry">
            <mxPoint x="589.9999999999998" y="530" as="targetPoint" />
          </mxGeometry>
        </mxCell>
        <mxCell id="Bwu1Xx9QFbBlA7bNmXKV-29" value="&lt;font style=&quot;font-size: 11px;&quot;&gt;IMPRIMA&amp;nbsp;&lt;/font&gt;&lt;div style=&quot;font-size: 9px;&quot;&gt;VIUVO&lt;/div&gt;" style="shape=display;whiteSpace=wrap;html=1;" parent="1" vertex="1">
          <mxGeometry x="480" y="510" width="80" height="40" as="geometry" />
        </mxCell>
        <mxCell id="Bwu1Xx9QFbBlA7bNmXKV-32" value="V" style="text;html=1;align=center;verticalAlign=middle;whiteSpace=wrap;rounded=0;" parent="1" vertex="1">
          <mxGeometry x="414" y="320" width="60" height="30" as="geometry" />
        </mxCell>
        <mxCell id="Bwu1Xx9QFbBlA7bNmXKV-33" value="V" style="text;html=1;align=center;verticalAlign=middle;whiteSpace=wrap;rounded=0;" parent="1" vertex="1">
          <mxGeometry x="414" y="410" width="60" height="30" as="geometry" />
        </mxCell>
        <mxCell id="Bwu1Xx9QFbBlA7bNmXKV-34" value="V" style="text;html=1;align=center;verticalAlign=middle;whiteSpace=wrap;rounded=0;" parent="1" vertex="1">
          <mxGeometry x="410" y="500" width="60" height="30" as="geometry" />
        </mxCell>
        <mxCell id="Bwu1Xx9QFbBlA7bNmXKV-35" value="F" style="text;html=1;align=center;verticalAlign=middle;whiteSpace=wrap;rounded=0;" parent="1" vertex="1">
          <mxGeometry x="370" y="380" width="60" height="30" as="geometry" />
        </mxCell>
        <mxCell id="Bwu1Xx9QFbBlA7bNmXKV-36" value="F" style="text;html=1;align=center;verticalAlign=middle;whiteSpace=wrap;rounded=0;" parent="1" vertex="1">
          <mxGeometry x="370" y="470" width="60" height="30" as="geometry" />
        </mxCell>
        <mxCell id="Bwu1Xx9QFbBlA7bNmXKV-37" value="F" style="text;html=1;align=center;verticalAlign=middle;whiteSpace=wrap;rounded=0;" parent="1" vertex="1">
          <mxGeometry x="370" y="555" width="60" height="30" as="geometry" />
        </mxCell>
      </root>
    </mxGraphModel>
  </diagram>
</mxfile>
